<svg xmlns="http://www.w3.org/2000/svg" viewBox="0 0 217.09 64.55"><defs><style>.cls-1{font-size:46.17px;font-family:BradleyHandITC, Bradley Hand ITC;}.cls-1,.cls-2{fill:#ffffff;}.cls-2{font-size:16.07px;font-family:Ebrima;}</style></defs><title>Asset 4</title><g id="Layer_2" data-name="Layer 2"><g id="Layer_1-2" data-name="Layer 1"><path d="M38,62.58C29.84,54.11,20.53,47,10.87,40.34l.19-.37a6.46,6.46,0,0,1,1.08.45A160.54,160.54,0,0,1,31.27,55.15c2.49,2.23,4.83,4.64,7.21,7a6.91,6.91,0,0,1,.86,1.34,15.38,15.38,0,0,1-7.35.08C18.92,61.2,9.38,53.91,3.18,42.32c-1.49-2.78-2.13-6-3.08-9.07-.31-1,.13-1.47,1.27-1.6,8.76-1,16.82,1.12,24.33,5.52,2.3,1.35,4.43,3,6.67,4.54a10.78,10.78,0,0,0-1.78-8c-1.7-2.55-3.21-5.24-4.79-7.87a2.51,2.51,0,0,1-.4-1.27c2.8,3.07,4.5,6.86,7,10.67.26-1.5.48-2.63.63-3.77a63.38,63.38,0,0,1,7-21.38c.78-1.48,1.67-2.9,2.47-4.37.55-1,1.12-.93,1.59,0C46,9.37,48,13,49.62,16.78a62.56,62.56,0,0,1,4.11,15.47,10,10,0,0,0,.57,2.65l6.54-10.59.56.34c-.22.4-.42.81-.66,1.21-2,3.44-4.11,6.87-6.13,10.32-1,1.77-.59,3.66-.48,5.54,2.19-1.51,4.16-3.06,6.31-4.33a40.72,40.72,0,0,1,23.46-6,5.09,5.09,0,0,1,.55,0c2.12.31,2.28.45,1.87,2.55a33.15,33.15,0,0,1-7.53,15.37c-6,7-13.27,11.93-22.38,13.85a50.81,50.81,0,0,1-6.65.7,5.43,5.43,0,0,1-2.52-.61c8.3-9.24,17.95-16.72,28.09-23.59l.42.47a10.73,10.73,0,0,1-1.22,1,172.55,172.55,0,0,0-20.9,16.32c-1.5,1.33-2.85,2.81-4.25,4.24a6.53,6.53,0,0,0-.68,1l.18.51a55.7,55.7,0,0,0,6.86-.64c11.75-2.5,20.47-9.26,26.43-19.55a45.51,45.51,0,0,0,3.32-8.55c.6-1.8.31-2.1-1.59-2.26A37.17,37.17,0,0,0,67,35,44.87,44.87,0,0,0,55.8,41.52a6.23,6.23,0,0,0-2.24,4.39c-1,6.3-3.28,12-7.87,16.62-2.2,2.21-2.5,2.25-4.78,0a26.33,26.33,0,0,1-7.68-15.79,9.14,9.14,0,0,0-4.3-6.7c-7.54-5.24-15.82-8.2-25.11-7.91-3.31.11-3.35.14-2.5,3.3C3.62,44,8.66,50.62,15.67,55.84a37.47,37.47,0,0,0,16.11,7,47.89,47.89,0,0,0,6,.36ZM42.87,21l.68,0v42L44,63a23.94,23.94,0,0,0,5-5.92c4.52-7.67,4.91-16.06,4-24.54A63.38,63.38,0,0,0,44.43,7.63c-.31-.54-.68-1-1-1.59a3.2,3.2,0,0,0-.5.38c-.19.27-.35.55-.52.83a72.59,72.59,0,0,0-6,13,54.8,54.8,0,0,0-2.81,24.35c.81,6.48,3,12.39,7.63,17.17a14.53,14.53,0,0,0,1.29,1.06l.38-.2Z"/><path d="M52.1,20a13.86,13.86,0,0,1,2.51-1.67c3.2-1.24,6.43-2.44,9.7-3.47,2-.64,2.33-.38,2.93,1.59,1.49,4.86,2.32,9.78,1.24,14.86A10.73,10.73,0,0,1,68,32.58l-.43-.1c.17-1.24.38-2.47.52-3.72A27.7,27.7,0,0,0,66.3,16.18c-.13-.37-1-.71-1.53-.65a31.16,31.16,0,0,0-10.53,3.9l-1.87,1Z"/><path d="M34.11,20.37A40,40,0,0,0,30,18.26c-2.67-1-5.41-1.89-8.14-2.79-.91-.3-1.45.07-1.76,1-1.59,4.89-2.41,9.83-1.22,14.94a4.42,4.42,0,0,1,0,1l-.48.09a29.8,29.8,0,0,1-.72-3.91,32.17,32.17,0,0,1,2-13.14A1.62,1.62,0,0,1,21,14.68a20.39,20.39,0,0,1,4.58,1c2.63,1,5.18,2.26,7.75,3.45a4.75,4.75,0,0,1,1,.9Z"/><text class="cls-1" transform="translate(88.35 34.78)">respira</text><text class="cls-2" transform="translate(94.09 59.41)">Wellness &amp; Spa</text></g></g></svg>